<svg xmlns="http://www.w3.org/2000/svg" width="18" height="24" viewBox="0 0 18 24">
  <defs>
    <style>
      .cls-1 {
        fill: #e12a2a;
        fill-rule: evenodd;
      }
    </style>
  </defs>
  <path class="cls-1" d="M2.591,5.333H1.526V4.56H5.66c0-.31,0-0.6,0-0.885A1.542,1.542,0,0,1,7.347,1.99q1.656,0,3.312,0a1.535,1.535,0,0,1,1.67,1.677c0,0.288,0,.576,0,0.881h4.145V5.31H15.45c-0.032.325-.067,0.624-0.091,0.923-0.116,1.464-.228,2.929-0.344,4.393q-0.2,2.485-.4,4.97-0.154,1.928-.307,3.857c-0.032.406-.055,0.812-0.106,1.216A1.471,1.471,0,0,1,12.695,22q-1.252.012-2.5,0.011-2.4,0-4.8-.011a1.488,1.488,0,0,1-1.556-1.42c-0.156-1.849-.3-3.7-0.454-5.547Q3.137,12.075,2.9,9.116C2.794,7.866,2.694,6.615,2.591,5.333Zm12.076,0.02H3.363c0.01,0.171.017,0.329,0.03,0.486Q3.694,9.53,4,13.22q0.3,3.618.589,7.237a0.757,0.757,0,0,0,.809.784c0.1,0,.193,0,0.29,0q2.152,0,4.3,0c0.89,0,1.78,0,2.67-.009a0.731,0.731,0,0,0,.787-0.733c0.014-.13.027-0.261,0.037-0.391q0.153-1.918.306-3.835,0.177-2.206.357-4.412,0.156-1.928.31-3.856C14.528,7.13,14.6,6.25,14.667,5.354Zm-3.131-.82c0-.4.022-0.768-0.006-1.137a0.65,0.65,0,0,0-.634-0.624,2.916,2.916,0,0,0-.371-0.025q-1.283,0-2.566,0c-0.3,0-.593,0-0.888.029a0.64,0.64,0,0,0-.607.532c-0.025.4-.006,0.809-0.006,1.226h5.08Zm0.239,15h-0.76q0.277-6.261.553-12.521h0.763Q12.053,13.27,11.775,19.532Zm-4.8,0H6.217L5.66,7.028H6.417Zm2.356,0H8.661V7.022H9.334V19.532Z"/>
</svg>
