<svg xmlns="http://www.w3.org/2000/svg" width="23" height="24" viewBox="0 0 23 24">
  <defs>
    <style>
      .cls-1 {
        fill: #2abb9c;
        fill-rule: evenodd;
      }
    </style>
  </defs>
  <path class="cls-1" d="M22,6.137a2.549,2.549,0,0,1-.763,1.8Q15.416,13.749,9.611,19.569a2.1,2.1,0,0,1-.927.561c-1.971.589-3.935,1.2-5.9,1.809a0.575,0.575,0,0,1-.634-0.077,0.581,0.581,0,0,1-.084-0.654c0.613-1.981,1.231-3.96,1.826-5.946a1.869,1.869,0,0,1,.5-0.825q3.97-3.951,7.926-7.918,1.869-1.869,3.737-3.737a2.554,2.554,0,0,1,3.669,0C20.231,3.287,20.736,3.8,21.248,4.3A2.524,2.524,0,0,1,22,6.137ZM12.947,7.4L5.278,15.067l3.667,3.672,7.671-7.67Zm6.458,0.961c0.4-.4.827-0.806,1.233-1.23a1.383,1.383,0,0,0-.006-2.035Q19.78,4.213,18.9,3.362a1.387,1.387,0,0,0-2.036.01c-0.384.37-.756,0.752-1.132,1.13a1.014,1.014,0,0,0-.083.1ZM7.937,19.317L4.685,16.061l-1.445,4.7ZM13.7,6.6l3.7,3.7,1.2-1.2-3.7-3.7Z"/>
</svg>
